<svg id="Layer_1" enable-background="new 0 0 128 128" height="512" viewBox="0 0 128 128" width="512" xmlns="http://www.w3.org/2000/svg"><path d="m117.372 38.582c-2.772 0-5.559.558-7.194 1.635-.13-.016-.259-.04-.393-.04h-.783c-.135 0-.263.024-.393.04-1.635-1.078-4.422-1.635-7.194-1.635-4.299 0-8.651 1.334-8.651 3.885 0 2.55 4.353 3.884 8.651 3.884 1.494 0 2.991-.165 4.313-.482v1.912h-1.914c-.553 0-1 .447-1 1v2.497h-25.174v-3.696c0-2.769-2.252-5.021-5.02-5.021h-13.24c-2.768 0-5.02 2.252-5.02 5.021v3.696s-17.558 0-18.11 0h-7.064v-2.498c0-.553-.447-1-1-1h-1.914v-1.912c1.322.317 2.819.482 4.313.482 4.299 0 8.651-1.334 8.651-3.884 0-2.551-4.353-3.885-8.651-3.885-2.772 0-5.559.558-7.194 1.635-.13-.016-.259-.04-.393-.04h-.783c-.135 0-.263.024-.393.04-1.635-1.078-4.422-1.635-7.194-1.635-4.299 0-8.651 1.334-8.651 3.885 0 2.55 4.353 3.884 8.651 3.884 1.494 0 2.99-.165 4.313-.482v1.912h-1.913c-.553 0-1 .447-1 1v8.369c0 3.627 2.951 6.578 6.579 6.578 2.693 0 5.009-1.627 6.027-3.948h25.726v.239c-9.495 4.199-16.24 13.398-16.908 24.391-1.664.596-2.865 2.173-2.865 4.041v3.967c0 .553.447 1 1 1h9.422c.553 0 1-.447 1-1v-3.967c0-1.743-1.045-3.239-2.537-3.917.567-7.866 5.08-14.544 11.566-18.132.648 1.135 1.716 1.984 3.001 2.344v.146c0 2.181 1.774 3.955 3.956 3.955h3.005v1.399c-4.016.495-7.139 3.923-7.139 8.071 0 4.487 3.651 8.139 8.139 8.139s8.139-3.651 8.139-8.139c0-4.148-3.122-7.575-7.139-8.071v-1.399h3.006c2.182 0 3.956-1.774 3.956-3.955v-.146c1.284-.359 2.352-1.209 3.001-2.344 6.485 3.588 10.999 10.266 11.566 18.132-1.492.677-2.537 2.174-2.537 3.917v3.967c0 .553.447 1 1 1h9.422c.553 0 1-.447 1-1v-3.967c0-1.867-1.201-3.445-2.865-4.041-.669-10.992-7.414-20.192-16.909-24.39v-.239h25.727c1.017 2.321 3.334 3.948 6.027 3.948 3.628 0 6.579-2.951 6.579-6.578v-8.37c0-.553-.447-1-1-1h-1.913v-1.912c1.322.317 2.818.482 4.313.482 4.299 0 8.651-1.334 8.651-3.884s-4.353-3.884-8.652-3.884z" fill="#e6e7e8"/><path d="m51.36 59.931v-3.226c-9.666 4.052-16.558 13.449-16.953 24.475h4.003c.37-8.836 5.624-16.427 13.122-20.153-.101-.351-.172-.714-.172-1.096z" fill="#6dc9f7"/><path d="m72.64 56.704v3.226c0 .382-.071.745-.171 1.096 7.498 3.726 12.751 11.317 13.121 20.153h4.003c-.395-11.026-7.287-20.422-16.953-24.475z" fill="#6dc9f7"/><g fill="#0089ef"><path d="m86.297 81.144h2.81c1.826 0 3.306 1.48 3.306 3.306v3.967h-9.423v-3.967c.001-1.826 1.481-3.306 3.307-3.306z"/><path d="m34.893 81.144h2.81c1.826 0 3.306 1.48 3.306 3.306v3.967h-9.423v-3.967c.001-1.826 1.481-3.306 3.307-3.306z"/><path d="m72.64 48.278v6.502h27.418c-.157-.516-.243-1.063-.243-1.631v-4.871z"/><path d="m51.36 48.278h-27.175v4.871c0 .568-.086 1.115-.244 1.631h27.419z"/></g><path d="m26.585 35.583c-3.098 0-5.759.695-6.963 1.693.95.273 1.65 1.138 1.65 2.176v1.088c1.377.501 3.248.811 5.313.811 4.226 0 7.651-1.291 7.651-2.884.001-1.593-3.425-2.884-7.651-2.884z" fill="#ffd7e5"/><path d="m15.941 39.452c0-1.038.7-1.903 1.65-2.176-1.204-.998-3.865-1.693-6.963-1.693-4.226 0-7.652 1.291-7.652 2.884s3.426 2.884 7.652 2.884c2.066 0 3.936-.31 5.313-.811z" fill="#ffd7e5"/><path d="m18.606 58.728c-3.081 0-5.579-2.498-5.579-5.579v-8.369h11.158v8.369c0 3.081-2.497 5.579-5.579 5.579z" fill="#0089ef"/><path d="m18.998 37.178h-.784c-1.256 0-2.274 1.018-2.274 2.274v5.329h5.331v-5.329c.001-1.256-1.017-2.274-2.273-2.274z" fill="#6dc9f7"/><path d="m113.372 35.583c-3.098 0-5.759.695-6.963 1.693.95.273 1.65 1.138 1.65 2.176v1.088c1.377.501 3.248.811 5.313.811 4.226 0 7.652-1.291 7.652-2.884s-3.426-2.884-7.652-2.884z" fill="#ffd7e5"/><path d="m102.728 39.452c0-1.038.699-1.903 1.65-2.176-1.204-.998-3.865-1.693-6.963-1.693-4.226 0-7.652 1.291-7.652 2.884s3.426 2.884 7.652 2.884c2.066 0 3.937-.31 5.313-.811z" fill="#ffd7e5"/><path d="m105.394 58.728c-3.081 0-5.579-2.498-5.579-5.579v-8.369h11.158v8.369c0 3.081-2.498 5.579-5.579 5.579z" fill="#0089ef"/><path d="m105.786 37.178h-.784c-1.256 0-2.274 1.018-2.274 2.274v5.329h5.331v-5.329c0-1.256-1.018-2.274-2.273-2.274z" fill="#6dc9f7"/><path d="m72.64 43.581v16.35c0 2.21-1.8 4.02-4.02 4.02h-13.24c-2.21 0-4.02-1.81-4.02-4.02v-16.35c0-2.21 1.81-4.02 4.02-4.02h13.24c2.22 0 4.02 1.81 4.02 4.02z" fill="#fff"/><path d="m72.64 43.581v16.35c0 2.21-1.8 4.02-4.02 4.02h-10.24c-2.21 0-4.02-1.81-4.02-4.02v-16.35c0-2.21 1.81-4.02 4.02-4.02h10.24c2.22 0 4.02 1.81 4.02 4.02z" fill="#fa759e"/><path d="m66.006 67.847h-8.013c-1.633 0-2.956-1.323-2.956-2.956v-.938h13.924v.938c.001 1.633-1.322 2.956-2.955 2.956z" fill="#0089ef"/><circle cx="62" cy="78.317" fill="#fa759e" r="7.139"/><path d="m34.75 48.278c0 .553.447 1 1 1h6.834c.553 0 1-.447 1-1s-.447-1-1-1h-6.834c-.553 0-1 .447-1 1z" fill="#3a2c60"/><path d="m113.372 34.583c-2.768 0-5.538.562-7.174 1.636-.136-.018-.271-.042-.412-.042h-.784c-.141 0-.276.024-.412.042-1.636-1.074-4.406-1.636-7.175-1.636-4.299 0-8.651 1.334-8.651 3.884 0 2.551 4.353 3.885 8.651 3.885 1.496 0 2.99-.168 4.313-.487v1.915h-1.913c-.553 0-1 .447-1 1v2.498h-25.174v-3.697c0-2.769-2.252-5.021-5.021-5.021h-13.24c-2.768 0-5.02 2.252-5.02 5.021v3.697h-4.193c-.553 0-1 .447-1 1s.447 1 1 1h4.193v4.501h-25.205c.021-.209.03-.419.03-.63v-3.871h7.064c.553 0 1-.447 1-1s-.447-1-1-1h-7.064v-2.498c0-.553-.447-1-1-1h-1.913v-1.915c1.323.318 2.817.486 4.313.486 4.299 0 8.651-1.334 8.651-3.885 0-2.55-4.353-3.884-8.651-3.884-2.768 0-5.538.562-7.174 1.636-.137-.017-.272-.042-.413-.042h-.783c-.141 0-.276.024-.413.042-1.636-1.075-4.406-1.636-7.174-1.636-4.299 0-8.651 1.334-8.651 3.884 0 2.551 4.353 3.885 8.651 3.885 1.496 0 2.99-.168 4.313-.487v1.915h-1.914c-.553 0-1 .447-1 1v8.369c0 3.628 2.951 6.579 6.579 6.579 2.693 0 5.01-1.627 6.027-3.949h25.727v.257c-9.49 4.199-16.229 13.383-16.898 24.371-1.669.593-2.875 2.173-2.875 4.043v3.968c0 .553.447 1 1 1h9.423c.553 0 1-.447 1-1v-3.967c0-1.747-1.049-3.247-2.548-3.922.568-7.864 5.095-14.531 11.58-18.117.649 1.13 1.715 1.976 2.996 2.334v.146c0 2.182 1.774 3.956 3.956 3.956h3.006v1.398c-4.016.495-7.139 3.923-7.139 8.071 0 4.487 3.651 8.139 8.139 8.139s8.139-3.651 8.139-8.139c0-4.148-3.122-7.575-7.139-8.071v-1.398h3.007c2.182 0 3.956-1.774 3.956-3.956v-.146c1.281-.358 2.346-1.204 2.995-2.334 6.485 3.586 11.012 10.253 11.58 18.117-1.497.675-2.547 2.175-2.547 3.922v3.968c0 .553.447 1 1 1h9.423c.553 0 1-.447 1-1v-3.968c0-1.871-1.206-3.451-2.876-4.044-.67-10.987-7.408-20.171-16.897-24.37v-.257h25.727c1.017 2.322 3.334 3.949 6.026 3.949 3.628 0 6.579-2.951 6.579-6.579v-8.369c0-.553-.447-1-1-1h-1.913v-1.915c1.323.318 2.817.486 4.313.486 4.3 0 8.652-1.334 8.652-3.885-.001-2.549-4.353-3.883-8.653-3.883zm-80.136 3.884c0 .547-2.331 1.885-6.651 1.885-1.798 0-3.235-.233-4.313-.544v-.357c0-.792-.294-1.509-.764-2.076 1.115-.427 2.816-.792 5.077-.792 4.32 0 6.651 1.337 6.651 1.884zm-22.608 1.884c-4.32 0-6.651-1.338-6.651-1.885s2.331-1.884 6.651-1.884c2.261 0 3.962.365 5.077.792-.47.567-.764 1.284-.764 2.076v.356c-1.077.312-2.515.545-4.313.545zm6.313-.9c0-.702.571-1.273 1.273-1.273h.783c.703 0 1.274.571 1.274 1.273v4.329h-3.331v-4.329zm6.244 13.698c0 2.525-2.054 4.579-4.579 4.579s-4.579-2.054-4.579-4.579v-7.369h1.914 5.331 1.913zm44.954 25.167c0 3.385-2.754 6.139-6.139 6.139s-6.139-2.754-6.139-6.139 2.754-6.139 6.139-6.139c3.385.001 6.139 2.754 6.139 6.139zm-28.129 9.102h-7.423v-2.968c0-1.271 1.034-2.307 2.306-2.307h2.811c1.271 0 2.307 1.035 2.307 2.307v2.968zm-2.536-7.275h-2.007c.731-9.735 6.605-17.897 14.894-21.905v1.692c0 .182.035.355.054.532-7.18 3.821-12.24 11.083-12.941 19.681zm28.533-13.295h-8.013c-1.058 0-1.923-.845-1.955-1.895h11.923c-.032 1.05-.898 1.895-1.955 1.895zm5.634-6.917c0 1.665-1.355 3.021-3.021 3.021h-13.24c-1.665 0-3.02-1.355-3.02-3.021v-16.35c0-1.665 1.354-3.021 3.02-3.021h13.24c1.665 0 3.021 1.355 3.021 3.021zm19.773 24.519v2.968h-7.423v-2.968c0-1.271 1.034-2.307 2.306-2.307h2.811c1.271 0 2.306 1.036 2.306 2.307zm-2.881-4.307h-2.007c-.701-8.598-5.761-15.86-12.939-19.68.019-.177.054-.35.054-.532v-1.692c8.288 4.008 14.161 12.17 14.892 21.904zm-14.892-26.364v-4.501h25.174v3.871c0 .21.01.421.03.63zm23.774-13.428c-4.32 0-6.651-1.338-6.651-1.885s2.331-1.884 6.651-1.884c2.261 0 3.962.365 5.077.792-.47.567-.764 1.284-.764 2.076v.357c-1.077.311-2.514.544-4.313.544zm12.558 12.798c0 2.525-2.054 4.579-4.579 4.579-2.524 0-4.578-2.054-4.578-4.579v-7.369h1.913 5.331 1.913zm-6.245-9.369v-4.329c0-.702.571-1.273 1.273-1.273h.784c.702 0 1.273.571 1.273 1.273v4.329zm9.644-3.429c-1.798 0-3.235-.233-4.313-.544v-.357c0-.792-.294-1.509-.764-2.076 1.115-.427 2.816-.792 5.076-.792 4.321 0 6.652 1.337 6.652 1.884s-2.33 1.885-6.651 1.885z" fill="#3a2c60"/><circle cx="62" cy="78.317" fill="#6dc9f7" r="4.199"/><circle cx="62" cy="78.317" fill="#d4fbff" r="2.601"/><circle cx="62" cy="78.317" fill="#6dc9f7" r="1.357"/></svg>